#!Matlab matrix to amc conversion
:FULLY-SPECIFIED
:DEGREES
16
root 9.192140 16.357400 -29.724600 1.618166 1.634016 -0.505141
lowerback 6.362316 0.787928 4.377499
upperback 2.387458 1.372962 1.328991
thorax -1.014647 0.698991 -1.164885
lowerneck -11.893402 2.847601 -0.047088
upperneck 4.481021 3.963266 -2.433322
head 3.781166 1.874394 -0.600400
rclavicle -0.000000 0.000000
rhumerus -20.801491 6.217541 -83.631476
rradius 38.053632
rwrist -13.296366
rhand -20.037647 16.217857
rfingers 7.125020
rthumb 6.300008 -13.593560
lclavicle -0.000000 0.000000
lhumerus -45.916243 21.637125 72.738898
lradius 20.648361
lwrist 9.375372
lhand -19.174837 22.658510
lfingers 7.125020
lthumb 7.126942 52.337458
rfemur 2.854960 5.761795 28.580600
rtibia 22.416042
rfoot -18.526705 -4.207932
rtoes -0.054171
lfemur -26.212133 -1.434987 -17.688566
ltibia 45.507632
lfoot -10.166756 12.634981
ltoes -13.374068
17
root 9.191770 16.245600 -29.440800 1.614506 1.634016 -0.512706
lowerback 6.423301 0.950038 4.554662
upperback 2.444872 1.583594 1.239186
thorax -0.968400 0.808032 -1.406992
lowerneck -11.581534 3.120459 0.267703
upperneck 4.407368 4.269807 -2.695798
head 3.718060 2.028655 -0.718736
rclavicle -0.000000 0.000000
rhumerus -18.649217 8.671043 -83.227800
rradius 40.940912
rwrist -14.301655
rhand -20.676651 16.613905
rfingers 7.125020
rthumb 5.681727 -13.228894
lclavicle -0.000000 0.000000
lhumerus -47.483952 22.151783 71.802657
lradius 20.819838
lwrist 9.583256
lhand -18.787991 22.765107
lfingers 7.125020
lthumb 7.499570 52.443851
rfemur 6.221601 5.634472 28.521716
rtibia 20.805797
rfoot -18.200819 -3.346251
rtoes -0.500277
lfemur -27.066364 -2.385609 -17.289117
ltibia 39.717254
lfoot -10.859379 12.938767
ltoes -13.628029
18
root 9.208550 16.156600 -29.151500 1.642447 1.634016 -0.503271
lowerback 6.482422 1.114973 4.751475
upperback 2.494116 1.804632 1.158319
thorax -0.926273 0.921456 -1.640944
lowerneck -11.267563 3.397929 0.618096
upperneck 4.356414 4.584160 -2.988869
head 3.664716 2.185215 -0.855630
rclavicle -0.000000 0.000000
rhumerus -16.504564 11.041136 -82.755932
rradius 43.912947
rwrist -15.259272
rhand -21.303195 16.987931
rfingers 7.125020
rthumb 5.075476 -12.880755
lclavicle -0.000000 0.000000
lhumerus -49.062281 22.679942 70.860983
lradius 21.015572
lwrist 9.707508
lhand -18.388672 22.885215
lfingers 7.125020
lthumb 7.884125 52.562207
rfemur 9.652599 5.512402 28.465311
rtibia 18.929758
rfoot -17.760691 -2.499898
rtoes -1.028703
lfemur -27.871735 -3.359174 -16.844528
ltibia 33.648088
lfoot -11.627794 13.391913
ltoes -13.843069
19
root 9.222000 16.080900 -28.855000 1.712437 1.634016 -0.463513
lowerback 6.540775 1.297130 5.020083
upperback 2.536744 2.065554 1.082289
thorax -0.887002 1.053686 -1.885735
lowerneck -10.933743 3.691378 1.041650
upperneck 4.327678 4.923931 -3.353219
head 3.620530 2.350756 -1.032544
rclavicle -0.000000 0.000000
rhumerus -14.272023 13.466752 -82.195700
rradius 47.285610
rwrist -16.235508
rhand -21.927123 17.436665
rfingers 7.125020
rthumb 4.471747 -12.447802
lclavicle -0.000000 0.000000
lhumerus -50.733833 23.238828 69.885812
lradius 21.246093
lwrist 9.755671
lhand -17.971964 23.021111
lfingers 7.125020
lthumb 8.285334 52.694719
rfemur 13.268570 5.391379 28.405044
rtibia 16.324292
rfoot -17.140613 -1.649392
rtoes -1.739652
lfemur -28.737739 -4.466810 -16.296689
ltibia 26.786645
lfoot -12.681715 14.123482
ltoes -14.158758
20
root 9.232280 16.013400 -28.551200 1.872680 1.634016 0.005827
lowerback 6.122975 1.383268 4.764095
upperback 2.334012 2.160546 1.094359
thorax -0.886934 1.090671 -1.657240
lowerneck -10.621501 4.151557 1.285993
upperneck 4.802397 5.509390 -3.200922
head 3.730903 2.648308 -1.008303
rclavicle -0.000000 0.000000
rhumerus -14.694144 12.974222 -82.130751
rradius 48.175579
rwrist -15.840918
rhand -21.789474 17.121942
rfingers 7.125020
rthumb 4.605016 -12.757070
lclavicle -0.000000 0.000000
lhumerus -50.903252 24.492407 68.821404
lradius 20.360990
lwrist 7.868182
lhand -17.895497 23.261230
lfingers 7.125020
lthumb 8.355156 52.945949
rfemur 15.856831 5.834173 28.279265
rtibia 15.206313
rfoot -14.945650 -2.036399
rtoes -6.715328
lfemur -28.050884 -4.128120 -16.554428
ltibia 27.069373
lfoot -10.977973 15.435523
ltoes -13.630088
21
root 9.239730 15.970900 -28.241000 1.960987 1.634016 0.257696
lowerback 5.711731 1.458000 4.543914
upperback 2.137998 2.227731 1.098521
thorax -0.888250 1.116023 -1.446132
lowerneck -10.325816 4.602307 1.511474
upperneck 5.265669 6.077947 -3.028497
head 3.837048 2.939331 -0.972808
rclavicle -0.000000 0.000000
rhumerus -15.124466 12.500038 -82.096032
rradius 48.975309
rwrist -15.462474
rhand -21.662489 16.831997
rfingers 7.125020
rthumb 4.727869 -13.040909
lclavicle -0.000000 0.000000
lhumerus -51.055867 25.720008 67.775617
lradius 19.499489
lwrist 6.103070
lhand -17.827778 23.491930
lfingers 7.125020
lthumb 8.416502 53.188132
rfemur 18.204908 6.255905 28.153773
rtibia 14.836567
rfoot -13.259388 -2.420716
rtoes -11.209089
lfemur -27.442680 -3.722444 -16.885298
ltibia 27.775281
lfoot -9.498067 16.071462
ltoes -13.033557
22
root 9.241850 15.946000 -27.925100 2.001213 1.634016 0.499006
lowerback 5.300340 1.527094 4.261291
upperback 1.941928 2.277820 1.094992
thorax -0.890986 1.133445 -1.234458
lowerneck -10.035949 5.052756 1.726030
upperneck 5.722517 6.645211 -2.824600
head 3.940218 3.230630 -0.923775
rclavicle -0.000000 0.000000
rhumerus -15.572702 12.034872 -82.090355
rradius 49.726556
rwrist -15.088969
rhand -21.544346 16.555629
rfingers 7.125020
rthumb 4.842067 -13.311416
lclavicle -0.000000 0.000000
lhumerus -51.196877 26.940577 66.734455
lradius 18.633870
lwrist 4.362937
lhand -17.767596 23.716416
lfingers 7.125020
lthumb 8.470467 53.424580
rfemur 20.503369 6.669222 28.013048
rtibia 15.073989
rfoot -11.661602 -2.810624
rtoes -15.657161
lfemur -26.861277 -3.112002 -17.351848
ltibia 29.287719
lfoot -7.893577 16.389185
ltoes -12.128830
23
root 9.242890 15.925900 -27.604900 1.624165 1.634016 0.364932
lowerback 5.010558 1.484480 3.041454
upperback 1.556432 2.149505 0.747739
thorax -1.151794 1.068741 -0.973477
lowerneck -9.917329 5.170649 1.926660
upperneck 6.749154 6.779951 -2.600716
head 4.279726 3.307424 -0.860623
rclavicle -0.000000 0.000000
rhumerus -18.176905 10.569485 -83.077525
rradius 47.760022
rwrist -14.919481
rhand -21.675583 16.930409
rfingers 7.125020
rthumb 4.714189 -12.928710
lclavicle -0.000000 0.000000
lhumerus -48.857752 25.653512 68.633059
lradius 19.549057
lwrist 5.237624
lhand -17.533292 23.707819
lfingers 7.125020
lthumb 8.700967 53.426371
rfemur 16.006671 6.520821 26.330758
rtibia 25.566687
rfoot -3.870825 -2.897943
rtoes -19.753899
lfemur -25.008517 -2.619932 -19.331485
ltibia 30.910753
lfoot -8.375458 14.832100
ltoes -8.596747
